<svg width="198" height="41" viewBox="0 0 198 41" fill="none" xmlns="http://www.w3.org/2000/svg">
<path d="M32.266 36.4585C23.1192 36.4585 15.7063 29.1779 15.7063 20.1974C15.7063 11.2164 23.1192 3.94278 32.266 3.94278C35.49 3.94278 38.5 4.84537 41.0428 6.40988L32.266 20.1974L48.7891 10.8321C46.9939 8.02436 44.4192 5.60505 41.3059 3.76921C37.3442 1.44091 31.8332 0 25.7394 0C17.0468 0 9.42072 3.10078 5.16785 7.74433C2.01915 11.177 0.144531 15.4974 0.144531 20.1972C0.144531 24.9003 2.01915 29.2238 5.16785 32.6589C9.43179 37.3083 16.9443 40.3909 25.4935 40.3909C34.0416 40.3909 41.5518 37.3059 45.8185 32.6589C46.0521 32.403 46.2783 32.1447 46.4923 31.8768L45.848 29.5062C42.8503 33.7066 37.8852 36.4585 32.266 36.4585ZM87.0462 39.4133L80.1114 14.0181C78.9974 9.91427 75.1906 6.89799 70.6584 6.89799C69.4829 6.89799 68.3566 7.10414 67.3115 7.47734L52.382 12.8065H67.7369L70.3609 22.4258C67.8156 20.2754 64.5007 18.967 60.871 18.967C53.6632 18.967 47.8276 23.7083 47.8276 29.5569C47.8276 35.406 53.6632 40.1544 60.871 40.1544C66.0598 40.1544 70.6486 37.6607 73.4791 33.8297L75.0013 39.4133H87.0462ZM65.8926 35.4688C62.5678 35.4688 59.8725 32.8255 59.8725 29.5569C59.8725 26.2932 62.5678 23.6475 65.8926 23.6475C69.2173 23.6475 71.915 26.2932 71.915 29.5569C71.915 32.8255 69.2173 35.4688 65.8926 35.4688ZM115.322 6.90233C114.412 6.90233 113.551 7.0998 112.784 7.45345L103.198 11.8387C102.723 9.03751 100.245 6.90233 97.2542 6.90233C96.3492 6.90233 95.4861 7.0998 94.709 7.45345L83.0058 12.8065H91.2342V39.4135H103.279V15.7665C103.279 14.1349 104.624 12.8067 106.292 12.8067C107.949 12.8067 109.304 14.1349 109.304 15.7665V39.4135H121.344V12.8065C121.344 9.54348 118.646 6.90233 115.322 6.90233ZM160.484 23.6472C160.484 32.8955 152.848 40.3909 143.43 40.3909C134.004 40.3909 126.363 32.8955 126.363 23.6472C126.363 14.4014 134.004 6.90233 143.43 6.90233C152.848 6.90233 160.484 14.4016 160.484 23.6472ZM144.136 11.9843C143.599 10.014 141.536 8.84439 139.53 9.37402C137.525 9.90148 136.328 11.928 136.866 13.8981L142.717 35.3095C143.258 37.2817 145.316 38.4501 147.323 37.9287C149.329 37.3952 150.522 35.3698 149.983 33.4L144.136 11.9843Z" fill="white"/>
<path d="M191.247 6.11914C190.344 6.11914 189.488 6.32729 188.716 6.70009L179.239 11.3227C178.772 8.3699 176.319 6.11914 173.36 6.11914C172.464 6.11914 171.61 6.32729 170.839 6.70009L159.262 12.3429H167.402V40.3902H179.32V15.4632C179.32 13.7432 180.653 12.3431 182.303 12.3431C183.949 12.3431 185.28 13.7432 185.28 15.4632V40.3902H197.205V12.3429C197.205 8.90326 194.533 6.11914 191.247 6.11914Z" fill="white"/>
</svg>
