<svg width="153" height="50" viewBox="0 0 153 50" fill="none" xmlns="http://www.w3.org/2000/svg">
<path d="M36.7595 30.8092C36.7595 31.6767 36.5668 32.3273 36.1812 32.6888C35.7957 33.0502 35.1692 33.2671 34.2535 33.2671H31.5547V37.6767H35.4824C37.6752 37.6767 39.3378 37.1707 40.4704 36.2069C41.5788 35.243 42.133 33.749 42.133 31.7972V12.1104H36.7595V30.8092Z" fill="white"/>
<path d="M52.6932 26.7851H64.8137V22.3273H52.6932V16.5441H65.0546V12.1104H47.3438V37.6526H65.3679V33.2189H52.6932V26.7851Z" fill="white"/>
<path d="M88.2332 25.3857C87.0043 24.2531 85.1489 23.4098 82.6669 22.8555L79.0043 22.0363C77.7272 21.7471 76.7392 21.4579 76.0645 21.1929C75.3898 20.9278 74.8838 20.6146 74.5464 20.2531C74.2091 19.8917 74.0404 19.4097 74.0404 18.8073C74.0404 18.229 74.2573 17.723 74.6428 17.2892C75.0525 16.8555 75.6308 16.5182 76.3296 16.2772C77.0525 16.0362 77.8235 15.9398 78.6669 15.9398C79.9922 15.9398 81.0766 16.1808 81.9199 16.6868C82.7633 17.1929 83.3898 17.9639 83.7272 19.0001H89.3176C89.0766 17.5543 88.4983 16.2772 87.6308 15.2169C86.7392 14.1326 85.5585 13.3133 84.0404 12.6868C82.5224 12.1326 80.7151 11.8193 78.6669 11.8193C76.8115 11.8193 75.1006 12.1567 73.5826 12.8073C72.0645 13.4579 70.8838 14.3495 69.9922 15.5061C69.1006 16.6386 68.6669 17.9639 68.6669 19.4097C68.6669 21.3134 69.2693 22.8796 70.5223 24.0604C71.7753 25.2411 73.5344 26.0363 75.7994 26.5182L79.4621 27.3375C80.7392 27.6266 81.7272 27.9158 82.4501 28.1809C83.1489 28.4459 83.7031 28.7833 84.0645 29.1929C84.4501 29.6026 84.6187 30.1086 84.6187 30.7833C84.6187 31.458 84.3778 32.0363 83.944 32.5423C83.5103 33.0484 82.8597 33.4098 82.0163 33.6749C81.1729 33.9399 80.1609 34.0845 78.9802 34.0845C77.5344 34.0845 76.3055 33.7472 75.3175 33.0484C74.3296 32.3496 73.7512 31.3375 73.5826 30.0363H67.9922C68.2332 31.7471 68.8115 33.217 69.7512 34.47C70.691 35.7231 71.944 36.6628 73.5103 37.3134C75.0765 37.9881 76.9561 38.1809 78.8838 38.1809C81.1248 38.1809 83.0766 37.8917 84.7874 37.2411C86.4742 36.6146 87.7754 35.699 88.691 34.4941C89.6067 33.2893 90.0886 31.8435 90.0886 30.1809C90.0645 28.1086 89.4621 26.5423 88.2332 25.3857Z" fill="white"/>
<path d="M99.6083 12.1104L91.0781 37.6526H96.6926L98.8854 30.761H110.138L112.331 37.6526H117.97L109.44 12.1104H99.6083ZM100.331 26.3273L104.524 13.1947L108.717 26.3273H100.331Z" fill="white"/>
<path d="M141.726 12.1104L136.352 36.8093L130.979 12.1104H120.617V37.6526H125.967V13.1706L131.581 37.6526H141.099L146.762 13.0019V37.6526H152.087V12.1104H141.726Z" fill="white"/>
<path d="M5.77383 32.5674H0.617188V37.6758H5.77383V32.5674Z" fill="white"/>
<path d="M26.3754 12.1104H21.2188V17.2188H26.3754V12.1104Z" fill="white"/>
<path d="M16.0871 12.1104H0.617188V27.4598H5.77383V32.5683H10.9305V27.4598H5.77383V17.2429H16.0871V22.3514H10.9305V27.4598H16.0871V22.3514H21.2197V32.5683H10.9305V37.6767H26.3763V22.3514H21.2197V17.2429H16.0871V12.1104Z" fill="white"/>
<path d="M16.0871 12.1104H0.617188V27.4598H5.77383V32.5683H10.9305V27.4598H5.77383V17.2429H16.0871V22.3514H10.9305V27.4598H16.0871V22.3514H21.2197V32.5683H10.9305V37.6767H26.3763V22.3514H21.2197V17.2429H16.0871V12.1104Z" fill="white"/>
</svg>
