<svg width="85" height="50" viewBox="0 0 85 50" fill="none" xmlns="http://www.w3.org/2000/svg">
<g clip-path="url(#clip0_50_40977)">
<path d="M84.7257 32.9505V4.0299C84.7257 4.0299 84.7257 -0.00366211 80.5822 -0.00366211H5.04586C5.04586 -0.00366211 0.902344 -0.00366211 0.902344 4.0299V32.9505C0.902344 32.9505 0.902344 36.9841 5.04586 36.9841H67.1986V50.0125L77.3503 36.976H80.5905C80.5905 36.976 84.734 36.976 84.734 32.9424" fill="white"/>
<path d="M25.8102 18.1778C25.8233 19.035 25.655 19.8857 25.3157 20.6768C24.9763 21.4679 24.4733 22.1825 23.8379 22.7761C23.2268 23.3874 22.4944 23.8714 21.6853 24.1987C20.8761 24.526 20.007 24.6897 19.1308 24.6799C17.3608 24.6778 15.664 23.9918 14.4132 22.7726C13.1624 21.5535 12.4598 19.9009 12.4598 18.1778C12.4481 17.3235 12.6155 16.4758 12.9518 15.6865C13.288 14.8973 13.7861 14.1831 14.4155 13.5876C15.0323 12.9791 15.7671 12.4959 16.5772 12.166C17.3874 11.8362 18.2568 11.6664 19.135 11.6664C20.0132 11.6664 20.8826 11.8362 21.6927 12.166C22.5029 12.4959 23.2377 12.9791 23.8545 13.5876C24.4877 14.1812 24.9893 14.8946 25.3285 15.684C25.6677 16.4735 25.8373 17.3222 25.8268 18.1778M26.987 25.8093C28.0498 24.8214 28.8925 23.6313 29.4628 22.3129C30.033 20.9945 30.3186 19.576 30.3018 18.1455C30.317 16.7165 30.0306 15.2997 29.4604 13.9828C28.8902 12.666 28.0484 11.4771 26.987 10.4898C25.9674 9.47073 24.7445 8.66524 23.3936 8.12282C22.0426 7.58041 20.592 7.31252 19.1308 7.3356C17.6614 7.3192 16.2043 7.5972 14.8499 8.15232C13.4955 8.70744 12.273 9.52782 11.2582 10.5624C10.2081 11.5556 9.377 12.7467 8.81563 14.0629C8.25425 15.3792 7.97436 16.7931 7.99307 18.2181C7.97941 19.6322 8.26105 21.0343 8.8209 22.3392C9.38074 23.6441 10.2071 24.8247 11.2499 25.8093C12.2678 26.8422 13.4921 27.6614 14.8474 28.2164C16.2028 28.7713 17.6605 29.0503 19.1308 29.0361C20.597 29.047 22.05 28.7664 23.4008 28.2115C24.7517 27.6567 25.972 26.8393 26.987 25.8093ZM51.2182 28.8103H55.8341V7.52115L44.6052 20.969L33.368 7.52115V28.8345H37.9839V19.8638L44.6135 28.4714L51.2431 19.8638L51.2182 28.8103ZM67.726 17.9116L77.4633 7.52115H58.5026V11.7967H67.494L61.3284 17.9197L71.2729 28.8425H77.6373L67.726 17.9116Z" fill="black"/>
</g>
<defs>
<clipPath id="clip0_50_40977">
<rect width="83.8234" height="50" fill="white" transform="translate(0.910156)"/>
</clipPath>
</defs>
</svg>
